<svg xmlns="http://www.w3.org/2000/svg" viewBox="0 0 48 48"><defs><style>.cls-1{fill:#fff;}</style></defs><g id="レイヤー_2" data-name="レイヤー 2"><g id="layer_1" data-name="layer 1"><path class="cls-1" d="M37,48H1a1,1,0,0,1-1-1V1A1,1,0,0,1,1,0H47a1,1,0,0,1,1,1V37H46V2H2V46H37Z"/><rect class="cls-1" x="36" y="8" width="11" height="2"/><rect class="cls-1" x="1" y="8" width="13" height="2"/><rect class="cls-1" x="4" y="4" width="2" height="2"/><rect class="cls-1" x="8" y="4" width="2" height="2"/><rect class="cls-1" x="12" y="4" width="2" height="2"/><path class="cls-1" d="M25,42A17,17,0,1,1,42,25,17,17,0,0,1,25,42Zm0-32A15,15,0,1,0,40,25,15,15,0,0,0,25,10Z"/><path class="cls-1" d="M42,48a1,1,0,0,1-.71-.29l-8-8,1.42-1.42L42,45.59,45.59,42l-7.3-7.29,1.42-1.42,8,8a1,1,0,0,1,0,1.42l-5,5A1,1,0,0,1,42,48Z"/><rect class="cls-1" x="24" y="20" width="2" height="12"/><rect class="cls-1" x="19" y="24" width="2" height="8"/><rect class="cls-1" x="34" y="18" width="2" height="14"/><rect class="cls-1" x="29" y="22" width="2" height="10"/><rect class="cls-1" x="14" y="28" width="2" height="4"/></g></g></svg>